<?xml version="1.0" encoding="UTF-8" standalone="no"?>
<!-- Created with Inkscape (http://www.inkscape.org/) -->

<svg
   xmlns:dc="http://purl.org/dc/elements/1.1/"
   xmlns:cc="http://creativecommons.org/ns#"
   xmlns:rdf="http://www.w3.org/1999/02/22-rdf-syntax-ns#"
   xmlns:svg="http://www.w3.org/2000/svg"
   xmlns="http://www.w3.org/2000/svg"
   xmlns:sodipodi="http://sodipodi.sourceforge.net/DTD/sodipodi-0.dtd"
   xmlns:inkscape="http://www.inkscape.org/namespaces/inkscape"
   version="1.1"
   id="svg2"
   xml:space="preserve"
   width="258.92358"
   height="72.858665"
   viewBox="0 0 258.92359 72.858665"
   sodipodi:docname="ENT3R-ny-farge.svg"
   inkscape:version="0.92.1 r15371"><metadata
     id="metadata8"><rdf:RDF><cc:Work
         rdf:about=""><dc:format>image/svg+xml</dc:format><dc:type
           rdf:resource="http://purl.org/dc/dcmitype/StillImage" /><dc:title></dc:title></cc:Work></rdf:RDF></metadata><defs
     id="defs6"><linearGradient
       x1="0"
       y1="0"
       x2="1"
       y2="0"
       gradientUnits="userSpaceOnUse"
       gradientTransform="matrix(71.218658,0,0,-71.218658,585.87811,315)"
       spreadMethod="pad"
       id="linearGradient40"><stop
         style="stop-opacity:1;stop-color:#508cff"
         offset="0"
         id="stop36" /><stop
         style="stop-opacity:1;stop-color:#00e6ff"
         offset="1"
         id="stop38" /></linearGradient></defs><sodipodi:namedview
     pagecolor="#ffffff"
     bordercolor="#666666"
     borderopacity="1"
     objecttolerance="10"
     gridtolerance="10"
     guidetolerance="10"
     inkscape:pageopacity="0"
     inkscape:pageshadow="2"
     inkscape:window-width="1920"
     inkscape:window-height="1001"
     id="namedview4"
     showgrid="false"
     inkscape:zoom="2.621346"
     inkscape:cx="112.07275"
     inkscape:cy="71.151461"
     inkscape:window-x="-9"
     inkscape:window-y="-9"
     inkscape:window-maximized="1"
     inkscape:current-layer="g10" /><g
     id="g10"
     inkscape:groupmode="layer"
     inkscape:label="Ent3r-Logo"
     transform="matrix(1.3333333,0,0,-1.3333333,-617.20438,456.42932)"><g
       id="g12"
       transform="translate(462.9033,288.5137)"><path
         d="M 0,0 V 53.203 H 29.338 V 44.539 H 10.564 V 31.466 H 28.273 V 22.877 H 10.564 V 8.588 H 29.338 V 0 Z"
         style="fill:#000000;fill-opacity:1;fill-rule:nonzero;stroke:none"
         id="path14"
         inkscape:connector-curvature="0" /></g><g
       id="g16"
       transform="translate(513.2148,318.6113)"><path
         d="M 0,0 -2.508,4.94 -2.964,4.788 v -34.886 h -10.564 v 53.203 h 9.272 l 18.241,-30.553 2.964,-5.093 0.456,0.076 v 35.57 H 27.97 v -53.203 h -9.198 z"
         style="fill:#000000;fill-opacity:1;fill-rule:nonzero;stroke:none"
         id="path18"
         inkscape:connector-curvature="0" /></g><g
       id="g20"
       transform="translate(570.2148,333.0527)"><path
         d="M 0,0 V -44.539 H -10.564 V 0 H -23.257 V 8.664 H 12.161 V 0 Z"
         style="fill:#000000;fill-opacity:1;fill-rule:nonzero;stroke:none"
         id="path22"
         inkscape:connector-curvature="0" /></g><g
       id="g24"><g
         id="g26"><g
           id="g32"><g
             id="g34"><path
               d="m 590.666,338.408 c -2.686,-2.611 -4.028,-6.601 -4.028,-11.971 v 0 h 10.032 c 0,1.266 0.063,2.432 0.19,3.497 v 0 c 0.125,1.064 0.392,1.988 0.798,2.773 v 0 c 0.405,0.785 0.975,1.394 1.71,1.824 v 0 c 0.733,0.43 1.684,0.647 2.85,0.647 v 0 c 1.773,0 3.09,-0.533 3.952,-1.596 v 0 c 0.86,-1.064 1.292,-2.889 1.292,-5.473 v 0 c 0,-1.115 -0.113,-2.179 -0.342,-3.191 v 0 c -0.228,-1.014 -0.584,-1.914 -1.065,-2.698 v 0 c -0.482,-0.787 -1.115,-1.419 -1.899,-1.9 v 0 c -0.786,-0.483 -1.761,-0.723 -2.926,-0.723 v 0 h -3.572 v -7.144 h 3.647 c 1.52,0 2.737,-0.254 3.649,-0.76 v 0 c 0.912,-0.506 1.621,-1.191 2.128,-2.052 v 0 c 0.506,-0.862 0.847,-1.836 1.026,-2.926 v 0 c 0.176,-1.09 0.266,-2.241 0.266,-3.457 v 0 c 0,-1.166 -0.064,-2.281 -0.189,-3.344 v 0 c -0.129,-1.065 -0.407,-1.989 -0.836,-2.775 v 0 c -0.432,-0.785 -1.04,-1.404 -1.825,-1.862 v 0 c -0.787,-0.455 -1.837,-0.684 -3.154,-0.684 v 0 c -2.382,0 -3.965,0.823 -4.75,2.471 v 0 c -0.786,1.645 -1.204,4.039 -1.254,7.182 v 0 h -10.488 v -0.229 c 0,-5.218 1.292,-9.246 3.876,-12.083 v 0 c 2.584,-2.839 6.485,-4.256 11.704,-4.256 v 0 c 3.749,0 6.775,0.482 9.082,1.443 v 0 c 2.305,0.963 4.115,2.23 5.434,3.801 v 0 c 1.317,1.571 2.204,3.318 2.66,5.244 v 0 c 0.456,1.925 0.683,3.8 0.683,5.623 v 0 c 0,3.395 -0.721,6.22 -2.165,8.475 v 0 c -1.444,2.254 -3.915,3.659 -7.411,4.217 v 0 0.152 c 2.584,0.558 4.599,1.863 6.043,3.915 v 0 c 1.443,2.052 2.166,4.698 2.166,7.942 v 0 c 0,4.762 -1.356,8.258 -4.066,10.488 v 0 c -2.711,2.229 -6.524,3.344 -11.438,3.344 v 0 c -5.167,0 -9.096,-1.306 -11.78,-3.914 m 29.872,3.308 4.362,-8.665 h 11.448 c 5.32,0 7.903,-2.888 7.903,-7.676 v 0 c 0,-4.94 -2.583,-7.676 -7.903,-7.676 v 0 h -4.359 l 13.478,-29.185 h 11.629 l -10.564,22.877 c 5.321,2.812 8.208,7.904 8.208,13.984 v 0 c 0,8.817 -6.536,16.341 -18.392,16.341 v 0 z"
               style="fill:url(#linearGradient40);stroke:none"
               id="path42"
               inkscape:connector-curvature="0" /></g></g></g></g></g></svg>